<svg xmlns="http://www.w3.org/2000/svg" width="32" height="32" viewBox="0 0 30.999 31">
    <path id="exit"
          d="M22.357,23.734v2.422A4.849,4.849,0,0,1,17.514,31H5.344A4.849,4.849,0,0,1,.5,26.156V4.844A4.849,4.849,0,0,1,5.344,0h12.17a4.849,4.849,0,0,1,4.844,4.844V7.266a1.211,1.211,0,1,1-2.422,0V4.844a2.425,2.425,0,0,0-2.422-2.422H5.344A2.425,2.425,0,0,0,2.922,4.844V26.156a2.425,2.425,0,0,0,2.422,2.422h12.17a2.425,2.425,0,0,0,2.422-2.422V23.734a1.211,1.211,0,1,1,2.422,0ZM30.613,13.42,27.9,10.708a1.211,1.211,0,1,0-1.713,1.712l1.929,1.929H13.578a1.211,1.211,0,1,0,0,2.422h14.54L26.189,18.7A1.211,1.211,0,1,0,27.9,20.413L30.613,17.7a3.031,3.031,0,0,0,0-4.281Zm0,0"
          transform="translate(-0.5)" fill="#fff"/>
</svg>
